<?xml version="1.0" encoding="us-ascii" standalone="no"?><svg xmlns="http://www.w3.org/2000/svg" xmlns:xlink="http://www.w3.org/1999/xlink" contentStyleType="text/css" height="536px" preserveAspectRatio="none" style="width:638px;height:536px;background:#FFFFFF;" version="1.1" viewBox="0 0 638 536" width="638px" zoomAndPan="magnify"><defs/><g><line style="stroke:#181818;stroke-width:0.5;stroke-dasharray:5.0,5.0;" x1="22" x2="22" y1="82.6094" y2="454.4766"/><line style="stroke:#181818;stroke-width:0.5;stroke-dasharray:5.0,5.0;" x1="197" x2="197" y1="82.6094" y2="454.4766"/><line style="stroke:#181818;stroke-width:0.5;stroke-dasharray:5.0,5.0;" x1="475" x2="475" y1="82.6094" y2="454.4766"/><line style="stroke:#181818;stroke-width:0.5;stroke-dasharray:5.0,5.0;" x1="570" x2="570" y1="82.6094" y2="454.4766"/><text fill="#000000" font-family="sans-serif" font-size="14" lengthAdjust="spacing" textLength="28" x="5" y="79.5332">user</text><ellipse cx="22" cy="13.5" fill="#E2E2F0" rx="8" ry="8" style="stroke:#181818;stroke-width:0.5;"/><path d="M22,21.5 L22,48.5 M9,29.5 L35,29.5 M22,48.5 L9,63.5 M22,48.5 L35,63.5 " fill="none" style="stroke:#181818;stroke-width:0.5;"/><text fill="#000000" font-family="sans-serif" font-size="14" lengthAdjust="spacing" textLength="28" x="5" y="468.0098">user</text><ellipse cx="22" cy="479.5859" fill="#E2E2F0" rx="8" ry="8" style="stroke:#181818;stroke-width:0.5;"/><path d="M22,487.5859 L22,514.5859 M9,495.5859 L35,495.5859 M22,514.5859 L9,529.5859 M22,514.5859 L35,529.5859 " fill="none" style="stroke:#181818;stroke-width:0.5;"/><rect fill="#E2E2F0" height="49.2188" rx="2.5" ry="2.5" style="stroke:#181818;stroke-width:0.5;" width="70" x="162" y="32.3906"/><text fill="#000000" font-family="sans-serif" font-size="14" lengthAdjust="spacing" textLength="56" x="169" y="53.9238">Scraping</text><text fill="#000000" font-family="sans-serif" font-size="14" lengthAdjust="spacing" textLength="45" x="174.5" y="71.5332">service</text><rect fill="#E2E2F0" height="49.2188" rx="2.5" ry="2.5" style="stroke:#181818;stroke-width:0.5;" width="70" x="162" y="453.4766"/><text fill="#000000" font-family="sans-serif" font-size="14" lengthAdjust="spacing" textLength="56" x="169" y="475.0098">Scraping</text><text fill="#000000" font-family="sans-serif" font-size="14" lengthAdjust="spacing" textLength="45" x="174.5" y="492.6191">service</text><rect fill="#E2E2F0" height="49.2188" rx="2.5" ry="2.5" style="stroke:#181818;stroke-width:0.5;" width="48" x="451" y="32.3906"/><text fill="#000000" font-family="sans-serif" font-size="14" lengthAdjust="spacing" textLength="34" x="458" y="53.9238">Local</text><text fill="#000000" font-family="sans-serif" font-size="14" lengthAdjust="spacing" textLength="19" x="465.5" y="71.5332">DB</text><rect fill="#E2E2F0" height="49.2188" rx="2.5" ry="2.5" style="stroke:#181818;stroke-width:0.5;" width="48" x="451" y="453.4766"/><text fill="#000000" font-family="sans-serif" font-size="14" lengthAdjust="spacing" textLength="34" x="458" y="475.0098">Local</text><text fill="#000000" font-family="sans-serif" font-size="14" lengthAdjust="spacing" textLength="19" x="465.5" y="492.6191">DB</text><rect fill="#E2E2F0" height="49.2188" rx="2.5" ry="2.5" style="stroke:#181818;stroke-width:0.5;" width="123" x="509" y="32.3906"/><text fill="#000000" font-family="sans-serif" font-size="14" lengthAdjust="spacing" textLength="81" x="530" y="53.9238">Supermarket</text><text fill="#000000" font-family="sans-serif" font-size="14" lengthAdjust="spacing" textLength="109" x="516" y="71.5332">personal account</text><rect fill="#E2E2F0" height="49.2188" rx="2.5" ry="2.5" style="stroke:#181818;stroke-width:0.5;" width="123" x="509" y="453.4766"/><text fill="#000000" font-family="sans-serif" font-size="14" lengthAdjust="spacing" textLength="81" x="530" y="475.0098">Supermarket</text><text fill="#000000" font-family="sans-serif" font-size="14" lengthAdjust="spacing" textLength="109" x="516" y="492.6191">personal account</text><polygon fill="#181818" points="185,110.9609,195,114.9609,185,118.9609,189,114.9609" style="stroke:#181818;stroke-width:1.0;"/><line style="stroke:#181818;stroke-width:1.0;" x1="22" x2="191" y1="114.9609" y2="114.9609"/><text fill="#000000" font-family="sans-serif" font-size="13" font-weight="bold" lengthAdjust="spacing" textLength="7" x="29" y="110.1045">1</text><text fill="#000000" font-family="sans-serif" font-size="13" lengthAdjust="spacing" textLength="105" x="40" y="110.1045">Run data scraping</text><polygon fill="#181818" points="558.5,141.3125,568.5,145.3125,558.5,149.3125,562.5,145.3125" style="stroke:#181818;stroke-width:1.0;"/><line style="stroke:#181818;stroke-width:1.0;" x1="197" x2="564.5" y1="145.3125" y2="145.3125"/><text fill="#000000" font-family="sans-serif" font-size="13" font-weight="bold" lengthAdjust="spacing" textLength="7" x="204" y="140.4561">2</text><text fill="#000000" font-family="sans-serif" font-size="13" lengthAdjust="spacing" textLength="80" x="215" y="140.4561">Data scraping</text><polygon fill="#181818" points="208,171.6641,198,175.6641,208,179.6641,204,175.6641" style="stroke:#181818;stroke-width:1.0;"/><line style="stroke:#181818;stroke-width:1.0;stroke-dasharray:2.0,2.0;" x1="202" x2="569.5" y1="175.6641" y2="175.6641"/><text fill="#000000" font-family="sans-serif" font-size="13" font-weight="bold" lengthAdjust="spacing" textLength="7" x="214" y="170.8076">3</text><text fill="#000000" font-family="sans-serif" font-size="13" lengthAdjust="spacing" textLength="56" x="225" y="170.8076">Raw Data</text><polygon fill="#181818" points="463,202.0156,473,206.0156,463,210.0156,467,206.0156" style="stroke:#181818;stroke-width:1.0;"/><line style="stroke:#181818;stroke-width:1.0;" x1="197" x2="469" y1="206.0156" y2="206.0156"/><text fill="#000000" font-family="sans-serif" font-size="13" font-weight="bold" lengthAdjust="spacing" textLength="7" x="204" y="201.1592">4</text><text fill="#000000" font-family="sans-serif" font-size="13" lengthAdjust="spacing" textLength="81" x="215" y="201.1592">Save raw data</text><polygon fill="#181818" points="185,232.3672,195,236.3672,185,240.3672,189,236.3672" style="stroke:#181818;stroke-width:1.0;"/><line style="stroke:#181818;stroke-width:1.0;" x1="22" x2="191" y1="236.3672" y2="236.3672"/><text fill="#000000" font-family="sans-serif" font-size="13" font-weight="bold" lengthAdjust="spacing" textLength="7" x="29" y="231.5107">5</text><text fill="#000000" font-family="sans-serif" font-size="13" lengthAdjust="spacing" textLength="100" x="40" y="231.5107">Run ETL process</text><line style="stroke:#181818;stroke-width:1.0;" x1="197" x2="239" y1="266.7188" y2="266.7188"/><line style="stroke:#181818;stroke-width:1.0;" x1="239" x2="239" y1="266.7188" y2="279.7188"/><line style="stroke:#181818;stroke-width:1.0;" x1="198" x2="239" y1="279.7188" y2="279.7188"/><polygon fill="#181818" points="208,275.7188,198,279.7188,208,283.7188,204,279.7188" style="stroke:#181818;stroke-width:1.0;"/><text fill="#000000" font-family="sans-serif" font-size="13" font-weight="bold" lengthAdjust="spacing" textLength="7" x="204" y="261.8623">6</text><text fill="#000000" font-family="sans-serif" font-size="13" lengthAdjust="spacing" textLength="73" x="215" y="261.8623">ETL process</text><path d="M202,292.7188 L202,334.7188 L400,334.7188 L400,302.7188 L390,292.7188 L202,292.7188 " fill="#FEFFDD" style="stroke:#181818;stroke-width:0.5;"/><path d="M390,292.7188 L390,302.7188 L400,302.7188 L390,292.7188 " fill="#FEFFDD" style="stroke:#181818;stroke-width:0.5;"/><text fill="#000000" font-family="sans-serif" font-size="13" lengthAdjust="spacing" textLength="172" x="208" y="311.2139">Extract raw data, transform to</text><text fill="#000000" font-family="sans-serif" font-size="13" lengthAdjust="spacing" textLength="177" x="208" y="327.5654">Purchases and Products, save</text><polygon fill="#181818" points="185,358.7734,195,362.7734,185,366.7734,189,362.7734" style="stroke:#181818;stroke-width:1.0;"/><line style="stroke:#181818;stroke-width:1.0;" x1="22" x2="191" y1="362.7734" y2="362.7734"/><text fill="#000000" font-family="sans-serif" font-size="13" font-weight="bold" lengthAdjust="spacing" textLength="7" x="29" y="357.917">7</text><text fill="#000000" font-family="sans-serif" font-size="13" lengthAdjust="spacing" textLength="140" x="40" y="357.917">Request export to Excel</text><line style="stroke:#181818;stroke-width:1.0;" x1="197" x2="239" y1="393.125" y2="393.125"/><line style="stroke:#181818;stroke-width:1.0;" x1="239" x2="239" y1="393.125" y2="406.125"/><line style="stroke:#181818;stroke-width:1.0;" x1="198" x2="239" y1="406.125" y2="406.125"/><polygon fill="#181818" points="208,402.125,198,406.125,208,410.125,204,406.125" style="stroke:#181818;stroke-width:1.0;"/><text fill="#000000" font-family="sans-serif" font-size="13" font-weight="bold" lengthAdjust="spacing" textLength="7" x="204" y="388.2686">8</text><text fill="#000000" font-family="sans-serif" font-size="13" lengthAdjust="spacing" textLength="253" x="215" y="388.2686">Generate Excel with purcases and products</text><polygon fill="#181818" points="33,432.4766,23,436.4766,33,440.4766,29,436.4766" style="stroke:#181818;stroke-width:1.0;"/><line style="stroke:#181818;stroke-width:1.0;" x1="27" x2="196" y1="436.4766" y2="436.4766"/><text fill="#000000" font-family="sans-serif" font-size="13" font-weight="bold" lengthAdjust="spacing" textLength="7" x="39" y="431.6201">9</text><text fill="#000000" font-family="sans-serif" font-size="13" lengthAdjust="spacing" textLength="53" x="50" y="431.6201">Excel file</text><!--SRC=[PP2nSi8m44HxVyKDDVo0YnGPCcaec93IpI4Ve8avYRiJyFavEuB1aygoTlVjZh1OudBUapGOB0aKzMD6iHXYHZPG1LHOx89WZdpis0tN66WnSmtzVh9jKi2Xu_NxNCOGKXc_8wbaaZFA3rd7VjJ4E3mSYwOP5y3gpOjR-2eCFHg2rlh6vxXMtIsiP-AZPlM8usror9IFR667Lm9nOUJ-A_luta2M54YrXaRbzPQJUJuUJ_OdtKtyvPx49VW_wo796Inrl2qIJgZahyWzR2Nr9PWkGNt6l9qkXTI0xZc9UTRHWOQN5P_49EZjam2tQ2V8Zd_ISwNNp4Xlg_aG1sf-0G00]--></g></svg>